<svg xmlns="http://www.w3.org/2000/svg" height="800" width="1200" viewBox="-79.0212 -35.8025 684.8504 214.815"><defs><linearGradient id="b" spreadMethod="pad" gradientTransform="matrix(344.394 -116.194 -104.815 -309.067 77.762 575.995)" gradientUnits="userSpaceOnUse" y2="0" x2="1" y1="0" x1="0"><stop offset="0" stop-color="#929669"/><stop offset=".231" stop-color="#929669"/><stop offset="1" stop-color="#fdfcf1"/></linearGradient><linearGradient id="d" spreadMethod="pad" gradientTransform="matrix(241.166 -936.211 -1007.33 -161.502 203.932 1135.85)" gradientUnits="userSpaceOnUse" y2="0" x2="1" y1="0" x1="0"><stop offset="0" stop-color="#45aa3a"/><stop offset="1" stop-color="#3d9439"/></linearGradient><linearGradient id="f" spreadMethod="pad" gradientTransform="matrix(422.095 95.9042 131.897 -394.11 -25.083 595.855)" gradientUnits="userSpaceOnUse" y2="0" x2="1" y1="0" x1="0"><stop offset="0" stop-color="#41a83b"/><stop offset="1" stop-color="#5ebc44"/></linearGradient><clipPath id="a" clipPathUnits="userSpaceOnUse"><path d="M275.945 28.672l-29.961 9.918s3.821 151.64-50.867 162.258c-36.062 41.785 5.551 1784.892 136.559 5.972 0 0-44.84-22.515-53.328-60.75-8.485-38.261-2.403-117.398-2.403-117.398z"/></clipPath><clipPath id="c" clipPathUnits="userSpaceOnUse"><path d="M292.098 175.105S552.441 346.574 491.449 702.68c-58.738 258.718-197.418 343.77-212.32 376.24-16.406 22.98-32.93 63.71-32.93 63.71l11.074-720.864s-22.906-220.11 34.825-246.661z"/></clipPath><clipPath id="e" clipPathUnits="userSpaceOnUse"><path d="M230.742 165.523S-13.468 332.121.582 626.066C14.637 920.02 187.121 1064.55 220.715 1090.77c21.719 23.15 22.617 32.07 24.297 54.91 15.222-32.7 12.691-488.422 14.304-541.688 6.258-207.351-11.484-399.328-28.574-438.469z"/></clipPath></defs><g clip-path="url(#a)" transform="matrix(.125 0 0 -.125 0 143.21)"><path d="M275.945 28.672l-29.961 9.918s3.821 151.64-50.867 162.258c-36.062 41.785 5.551 1784.892 136.559 5.972 0 0-44.84-22.515-53.328-60.75-8.485-38.261-2.403-117.398-2.403-117.398" fill="url(#b)"/></g><g clip-path="url(#c)" transform="matrix(.125 0 0 -.125 0 143.21)"><path d="M292.098 175.105S552.441 346.574 491.449 702.68c-58.738 258.718-197.418 343.77-212.32 376.24-16.406 22.98-32.93 63.71-32.93 63.71l11.074-720.864s-22.906-220.11 34.825-246.661" fill="url(#d)"/></g><g clip-path="url(#e)" transform="matrix(.125 0 0 -.125 0 143.21)"><path d="M230.742 165.523S-13.468 332.121.582 626.066C14.637 920.02 187.121 1064.55 220.715 1090.77c21.719 23.15 22.617 32.07 24.297 54.91 15.222-32.7 12.691-488.422 14.304-541.688 6.258-207.351-11.484-399.328-28.574-438.469" fill="url(#f)"/></g><path d="M397.701 110.66c2.16 1.726 6.477 2.437 10.283 2.437 4.935 0 9.767-.916 14.496-5.178 4.831-4.369 8.123-11.07 8.123-21.731 0-10.256-3.908-18.583-11.927-23.457-4.525-2.843-10.383-3.959-17.067-3.959-1.954 0-3.908.101-5.039.608-.309.203-.926 1.016-.926 1.423-.205 1.827-.205 15.738-.205 23.963 0 8.427 0 20.206.205 21.629.105 1.218.72 3.35 2.057 4.264zM377.18 54.201c1.747 0 8.389.304 11.475.304 5.757 0 9.766-.304 20.561-.304 9.049 0 16.659 2.437 22.108 7.108 6.581 5.687 10.076 13.607 10.076 23.253 0 13.708-6.271 21.628-12.543 26.096-6.273 4.67-14.396 7.31-26.013 7.31-6.17 0-16.762-.202-25.604-.302h-.121c-.41-.814.757-3.98 1.481-4.063 2.39-.27 3.037-.362 4.147-.82 1.867-.767 2.308-1.718 2.515-5.07.307-6.294.205-13.809.205-22.339 0-6.092.102-17.973-.103-21.73-.309-3.147-1.643-3.959-4.318-4.57-1.337-.303-3.187-.608-5.757-.913-.207-.609 1.377-3.351 1.891-3.96m91.446 4.977c-.41.102-.925 1.118-.925 1.625-.1 3.655-.203 13.2-.203 19.8 0 .202.306.507.513.507 1.337.103 4.625.204 7.402.204 3.907 0 6.171-.509 7.403-1.118 3.29-1.624 4.832-5.178 4.832-9.036 0-8.834-6.169-12.186-15.318-12.186-.617 0-2.366 0-3.704.204zm23.34 40.617c0-8.936-6.578-14.013-18.61-14.013-.513 0-4.318-.102-5.243.102-.309.1-.615.304-.615.507 0 6.398-.105 16.653.203 20.713.207 1.727 1.442 4.165 2.983 4.875 1.646.915 5.345 1.118 7.916 1.118 7.095 0 13.366-3.961 13.366-13.302zm-41.908-45.593c.925 0 3.662.304 10.652.304 6.581 0 11.926-.202 18.301-.202 7.917 0 18.815 2.843 18.815 14.622 0 5.787-4.11 10.459-9.457 12.693-.309.101-.309.304 0 .406 7.609 1.928 14.291 6.6 14.291 15.535 0 8.732-5.449 14.216-13.366 17.669-4.833 2.131-10.795 2.842-16.864 2.842-4.626 0-17.024-.507-23.914-.404-.72-.307.66-3.556 1.275-4.063 1.647-.101 2.915-.22 4.664-.728 2.466-.609 2.759-1.404 3.068-5.06.207-3.147.207-14.419.207-22.441 0-10.966.101-18.378 0-22.034-.105-2.843-1.132-3.758-3.086-4.265-1.541-.304-4.111-.61-6.168-.914-.516-.508 1.068-3.554 1.582-3.96" fill="#c0bdba"/><path d="M82.228 117.925c-.172-.273-.353-1.08-.315-2.052.029-.74.175-1.208.314-1.369 1.939-.306 2.857-.513 3.947-.804 1.817-.451 2.502-1.433 2.61-3.758.298-5.476.315-15.745.206-22.967l.001-.213c.009-.775.021-1.834-.952-2.581-1.426-.94-3.204-1.717-5.453-2.391-.861-.255-1.337-.708-1.312-1.237.027-.509.567-1.156 1.69-1.372 2.977-.307 10.783-2.166 13.846-3.579.181.22.468.698.412 1.46-.023.32-.05.654-.079 1.002-.087 1.02-.185 2.177-.185 3.33 0 .34.368.662.759.662a.746.746 0 00.532-.225c5.838-4.57 11.059-6.2 13.747-6.2 4.417 0 7.854 2.108 10.51 6.443.156.23.365.35.6.35a.675.675 0 00.556-.298c5.368-4.067 10.688-6.495 14.244-6.495 8.418 0 13.445 6.294 13.445 16.832 0 3.029-.03 6.867-.057 10.45-.026 3.144-.048 6.091-.048 8.13 0 .495.662 1.866 1.66 2.14 1.23.6 3.01.905 5.254 1.292l.086.014c.172.604-.186 2.954-.528 3.435-.557-.004-1.329-.045-2.29-.093-1.748-.09-4.143-.21-6.932-.21-5.592 0-8.515.11-11.306.29-.21-.698-.284-2.947-.027-3.415 1.627-.305 2.432-.51 3.41-.8 1.78-.586 2.292-1.392 2.396-3.754.041-1.68.364-16.46-.209-19.969-.527-3.636-3.272-7.893-9.274-7.893-2.226 0-5.823.924-9.252 3.522-.213.206-.336.608-.336.871l.006.068c.404 1.894.404 4.103.404 7.446 0 1.905-.012 3.926-.023 5.933-.023 4.075-.045 7.922.023 10.829 0 1.982 1.2 2.454 2.165 2.836.523.116.94.216 1.356.315.809.195 1.644.396 2.882.594.17.39.184 1.557-.048 2.555-.13.551-.279.794-.358.873-3.11-.106-6.301-.2-10.905-.2-1.396 0-3.675.06-5.685.114-1.63.043-3.173.086-4.05.09-.127-.201-.305-.844-.305-1.77 0-.861.158-1.468.32-1.655.433-.08.845-.153 1.237-.223 1.08-.192 2.013-.357 2.908-.577 1.524-.464 2.096-1.31 2.207-3.246.297-4.519.53-17.536-.11-20.796-1.09-5.232-4.072-7.883-8.86-7.883-2.809 0-6.353 1.35-9.25 3.52-.487.357-.854 1.258-.854 2.09 0 1.55-.005 3.396-.011 5.375-.02 6.538-.043 14.675.117 18.197.097 1.082.474 2.37 2.518 2.846.445.124 1.218.254 2.113.401.515.086 1.078.18 1.657.283.208.56.08 2.754-.276 3.437-.893-.005-1.992-.057-3.254-.112-1.926-.085-4.322-.192-7.053-.192-3.213 0-5.45.107-7.248.192-1.205.057-2.25.108-3.293.112M184.23 79.948c-1.871 0-3.619.49-4.919 1.38-3.57 2.169-5.387 6.5-5.387 12.86 0 11.914 5.972 20.233 14.521 20.233 2.523 0 4.579-.725 6.288-2.215 2.627-2.142 4.02-6.514 4.02-12.637 0-11.736-5.837-19.62-14.523-19.62zm1.646 38.891c-15.447 0-20.95-11.318-20.95-21.908 0-7.398 3.028-13.183 9.004-17.192 4.248-2.608 9.319-4.108 13.9-4.108 11.789 0 20.024 8.466 20.024 20.59 0 8.242-3.291 14.748-9.515 18.814-2.985 1.829-8.164 3.804-12.463 3.804m158.32-38.891c-1.873 0-3.622.49-4.92 1.38-3.57 2.169-5.387 6.498-5.387 12.86 0 11.914 5.97 20.233 14.521 20.233 2.523 0 4.579-.725 6.288-2.216 2.626-2.14 4.02-6.512 4.02-12.634 0-11.737-5.837-19.623-14.522-19.623zm1.645 38.891c-15.448 0-20.952-11.317-20.952-21.907 0-7.4 3.031-13.185 9.007-17.194 4.247-2.608 9.318-4.107 13.898-4.107 11.79 0 20.025 8.468 20.025 20.589 0 8.244-3.291 14.75-9.515 18.813-2.985 1.83-8.163 3.806-12.463 3.806m-53.338-39.296c-4.762 0-7.839 3.756-7.839 9.57 0 5.866 2.646 12.716 10.102 12.716 1.28 0 3.602-.568 4.752-1.835 1.732-1.59 2.863-4.875 2.863-8.344 0-7.582-3.693-12.107-9.878-12.107zm-.615 40.107c-1.789 0-3.09.52-3.868.956-3.769 2.414-5.516 4.824-5.516 7.6 0 2.616 1.017 4.695 3.202 6.544 2.647 2.24 6.215 3.33 10.91 3.33 9.233 0 13.373-4.96 13.373-9.875 0-3.42-1.719-5.713-5.254-7.01-2.725-.994-7.276-1.545-12.847-1.545zm.615 23.56c-5.545 0-9.542-1.169-12.955-3.792-3.32-2.56-4.808-6.357-4.808-8.98 0-.754.179-2.704 1.819-4.567.967-1.097 3.205-3.15 8.375-6.701a.425.425 0 00.269-.407.42.42 0 00-.324-.423c-4.261-1.63-5.546-4.304-5.934-5.755a3.124 3.124 0 00-.042-.224c-.123-.569-.237-1.107.533-1.66.597-.425 1.555-.992 2.57-1.59 1.498-.884 3.195-1.885 4.135-2.69a.643.643 0 00.174-.57.645.645 0 00-.345-.483c-6.306-2.117-9.481-6.796-9.481-13.921 0-4.6 2.124-8.758 5.825-11.41 2.536-2.001 8.902-4.409 13.026-4.409l.24.003c4.244.1 6.635.988 9.945 2.212 1.798.665 3.499.935 5.879.935 3.512 0 5.046-1.112 6.362-2.389.075.158.255.66.335 1.816.084 1.179-.238 2.925-1.14 4.172-.72.994-2.383 1.714-3.955 1.714-.157 0-.312-.007-.46-.023-1.618-.158-2.378-.394-2.386-.397l-.396.138c-.125.182-.044.385.059.641.025.062.05.12.058.159.207.822.573 3.222.573 3.894 0 7.472-2.951 10.731-6.141 13.141-3.044 2.295-6.602 3.674-10.612 4.097h-.003c-.082 0-.462.034-1.228.102-.494.045-1.109.1-1.2.1l-.09.012c-.697.197-2.505 1.056-2.505 2.654 0 1.33.82 2.978 4.729 3.272.792.06 1.642.119 2.53.18 5.161.359 11.606.806 14.64 1.834 4.172 1.518 6.769 5.251 6.769 9.741 0 6.706-4.774 13.012-12.768 16.864-3.877 1.824-7.815 2.71-12.072 2.71m-25.363-28.86c-2.261-.305-3.907-.61-5.86-1.524-.309-.203-.721-1.117-.721-1.422-.206-3.148-.206-12.286-.206-18.276 0-4.875-.822-9.14-2.878-12.187-2.467-3.452-5.962-5.482-10.487-5.482-4.009 0-9.357 2.741-13.777 6.499-.103.101-.782.745-.767-.255.015-.999.17-3.032.262-4.311.094-1.28-.673-1.883-.673-1.883-2.879 1.422-10.987 3.347-13.98 3.656-2.189.421-2.74 2.522-.41 3.248 0 .004.022.008.035.012 2.438.733 4.081 1.516 5.307 2.324.926.711.823 1.727.823 2.54.102 6.802.102 17.262-.207 22.947-.102 2.235-.72 3.046-2.365 3.453l.15-.05a32.183 32.183 0 01-3.803.71c-.515.507-.515 3.452-.002 4.062 1.03 0 6.274-.306 10.592-.306 5.962 0 9.047.306 10.59.306.616-.712.822-3.454.411-4.062-1.749-.101-2.983-.305-4.216-.61-1.645-.406-2.057-1.218-2.158-3.046-.206-4.772-.206-14.925-.206-21.831 0-1.93.514-2.843 1.131-3.351 2.055-1.828 5.449-3.045 8.431-3.045 2.878 0 4.832.913 6.272 2.13 1.953 1.626 2.672 3.961 2.878 5.688.412 3.86.308 11.575.308 18.277 0 3.656-.308 4.57-1.644 4.976-.617.305-2.262.609-4.216.812-.616.608-.411 3.452 0 4.062 2.674 0 5.759-.306 10.281-.306 5.656 0 9.254.306 10.694.306.616-.712.821-3.352.411-4.062" fill="#414044"/><path d="M517.126 109.339h1.74c1.407 0 1.942-.49 1.942-1.762 0-1.293-.514-1.719-2.098-1.719h-1.584zm3.704 5.466l-2.052-4.418h-1.652v4.418h-1.205v-10.04h2.97c2.207 0 3.122.983 3.122 2.812 0 1.47-.693 2.408-1.985 2.677l2.118 4.55zm-1.94-12.247c-4.04 0-7.251 3.19-7.251 7.25a7.193 7.193 0 007.227 7.205 7.19 7.19 0 007.207-7.206c0-4.081-3.123-7.249-7.183-7.249zm-.024 15.17c-4.46 0-7.94-3.481-7.94-7.942 0-4.485 3.48-7.942 7.964-7.942 4.373 0 7.918 3.502 7.918 7.829 0 4.528-3.479 8.054-7.942 8.054" fill="#c0bdba"/></svg>